<?xml version="1.0" standalone="no"?>
<!DOCTYPE svg PUBLIC "-//W3C//DTD SVG 20010904//EN"
 "http://www.w3.org/TR/2001/REC-SVG-20010904/DTD/svg10.dtd">
<svg version="1.0" xmlns="http://www.w3.org/2000/svg"
 width="920.000000pt" height="823.000000pt" viewBox="0 0 920.000000 823.000000"
 preserveAspectRatio="xMidYMid meet">

<g transform="translate(0.000000,823.000000) scale(0.100000,-0.100000)"
fill="#000000" stroke="none">
<path d="M6200 7699 c-19 -4 -145 -24 -280 -43 -290 -42 -415 -72 -530 -127
-126 -60 -144 -77 -159 -144 -7 -32 -20 -73 -28 -92 -21 -51 -101 -132 -217
-220 -172 -130 -182 -143 -211 -278 -29 -133 -49 -157 -197 -231 -96 -48 -121
-77 -151 -169 -37 -117 -40 -151 -44 -555 l-5 -405 32 -18 c101 -60 247 -214
355 -377 92 -137 317 -582 302 -596 -11 -11 -39 12 -77 62 -44 58 -72 67 -78
26 -4 -29 70 -135 135 -192 172 -153 434 -279 731 -354 310 -79 715 -83 972
-10 116 33 259 114 344 194 37 34 71 55 123 73 170 61 338 165 471 292 175
167 282 357 323 575 17 89 15 359 -5 570 -32 337 -26 521 20 685 l25 91 -27
74 c-116 327 -353 566 -760 769 -76 38 -238 108 -359 156 -121 47 -317 124
-435 171 -118 46 -219 84 -225 83 -5 -1 -26 -5 -45 -10z m506 -229 c249 -80
455 -244 558 -445 100 -194 85 -365 -43 -509 -21 -23 -22 -28 -7 -22 10 3 48
11 86 17 81 14 185 -4 275 -46 168 -80 305 -270 349 -487 31 -151 17 -365 -35
-534 -36 -118 -193 -249 -344 -289 -204 -53 -456 50 -616 252 l-59 74 0 350
c0 392 -7 350 83 468 27 35 43 61 36 58 -8 -3 -38 -14 -67 -23 -63 -21 -44
-27 -397 116 -132 54 -285 114 -341 135 l-101 37 -2 55 c-2 65 -23 169 -56
278 -33 112 -65 240 -65 264 0 28 99 131 172 179 163 106 383 134 574 72z
m-967 -246 c52 -13 104 -30 116 -38 26 -17 78 -151 102 -261 24 -111 14 -308
-21 -410 -48 -141 -92 -211 -196 -316 -84 -85 -107 -102 -200 -148 -133 -65
-217 -84 -380 -83 -128 0 -275 22 -296 45 -13 15 -36 78 -64 177 -31 109 -38
317 -16 430 37 181 119 335 239 447 187 175 432 228 716 157z m-778 -1331 c66
-25 342 -25 468 1 l94 19 19 -24 c41 -52 117 -168 163 -249 82 -146 154 -248
222 -316 l65 -65 -28 -62 c-15 -34 -54 -143 -86 -242 -33 -99 -77 -217 -99
-262 l-39 -82 -47 -8 c-27 -4 -106 -8 -178 -7 -150 0 -245 22 -355 79 -145 77
-239 175 -315 330 -114 229 -121 501 -21 754 29 73 73 151 85 151 5 0 28 -8
52 -17z m1843 -558 c48 -9 112 -24 142 -34 118 -42 255 -149 329 -256 38 -54
38 -55 32 -128 -8 -89 -45 -212 -87 -284 -95 -165 -304 -310 -526 -365 -119
-29 -326 -31 -429 -4 -90 24 -206 84 -271 141 -70 60 -124 143 -124 189 0 65
29 171 86 316 31 80 64 182 73 227 l16 82 71 26 c255 90 502 122 688 90z m415
-1059 c-89 -61 -258 -135 -411 -181 -122 -37 -482 -104 -494 -92 -9 9 95 94
152 124 83 44 243 98 365 122 111 23 304 48 379 50 l45 1 -36 -24z"/>
<path d="M7114 6449 c-62 -40 -109 -79 -94 -79 11 0 107 58 149 91 39 31 0 22
-55 -12z"/>
<path d="M3338 6953 c23 -2 61 -2 85 0 23 2 4 4 -43 4 -47 0 -66 -2 -42 -4z"/>
<path d="M3628 6953 c23 -2 61 -2 85 0 23 2 4 4 -43 4 -47 0 -66 -2 -42 -4z"/>
<path d="M3913 6953 c15 -2 37 -2 50 0 12 2 0 4 -28 4 -27 0 -38 -2 -22 -4z"/>
<path d="M2998 6943 c6 -2 18 -2 25 0 6 3 1 5 -13 5 -14 0 -19 -2 -12 -5z"/>
<path d="M4632 6915 c-12 -19 -19 -35 -15 -35 10 1 54 70 45 70 -4 0 -17 -16
-30 -35z"/>
<path d="M4572 6814 c-7 -7 -12 -16 -12 -19 1 -22 -2 -25 -12 -19 -7 4 -10 4
-6 -1 4 -4 1 -20 -7 -36 -30 -56 -14 -42 21 19 35 62 41 83 16 56z"/>
<path d="M4485 6613 c-9 -20 -14 -40 -13 -45 2 -5 11 11 20 37 20 54 15 61 -7
8z"/>
<path d="M4448 6528 c2 -10 6 -18 7 -18 1 0 5 8 7 18 3 11 0 19 -7 19 -7 0
-10 -8 -7 -19z"/>
<path d="M4436 6497 c3 -10 9 -15 12 -12 3 3 0 11 -7 18 -10 9 -11 8 -5 -6z"/>
<path d="M4378 6443 c6 -2 18 -2 25 0 6 3 1 5 -13 5 -14 0 -19 -2 -12 -5z"/>
<path d="M1868 5693 c7 -3 16 -2 19 1 4 3 -2 6 -13 5 -11 0 -14 -3 -6 -6z"/>
<path d="M2100 5696 c0 -2 8 -10 18 -17 15 -13 16 -12 3 4 -13 16 -21 21 -21
13z"/>
<path d="M1798 5683 c7 -3 16 -2 19 1 4 3 -2 6 -13 5 -11 0 -14 -3 -6 -6z"/>
<path d="M1899 5683 c-1 -5 -1 -11 0 -15 0 -5 -5 -8 -13 -8 -8 0 -17 -8 -21
-17 -5 -15 -4 -16 6 -5 14 13 33 17 25 4 -2 -4 6 -8 18 -8 23 0 29 17 12 33
-4 4 -6 3 -4 -3 2 -7 -1 -12 -7 -13 -5 0 -9 8 -9 19 1 19 -5 29 -7 13z"/>
<path d="M2092 5670 c7 -11 17 -20 22 -20 5 0 1 9 -9 20 -10 11 -20 20 -22 20
-2 0 2 -9 9 -20z"/>
<path d="M2147 5683 c-2 -5 2 -21 10 -38 11 -24 13 -25 8 -5 -4 14 -7 31 -7
38 -1 14 -5 15 -11 5z"/>
<path d="M1983 5668 c-13 -21 -12 -35 3 -35 9 0 11 4 4 12 -6 7 -5 16 2 23 7
7 9 12 6 12 -4 0 -10 -6 -15 -12z"/>
<path d="M2023 5662 c10 -10 15 -22 12 -25 -3 -4 -2 -5 2 -2 11 8 13 36 2 29
-5 -3 -9 0 -9 5 0 6 -5 11 -12 11 -6 0 -4 -7 5 -18z"/>
<path d="M2063 5665 c0 -8 4 -12 8 -9 4 2 10 -4 12 -13 4 -15 5 -15 6 -2 0 9
-5 22 -12 28 -10 8 -14 7 -14 -4z"/>
<path d="M2212 5649 c-1 -16 -1 -29 2 -29 7 0 13 50 7 55 -4 2 -8 -10 -9 -26z"/>
<path d="M1766 5661 c-3 -5 1 -14 8 -20 10 -9 16 -9 21 -1 4 6 1 9 -7 8 -7 -2
-12 3 -10 10 2 14 -4 16 -12 3z"/>
<path d="M2179 5657 c5 -5 7 -16 4 -23 -3 -8 -1 -14 4 -14 5 0 9 11 9 23 0 13
-6 24 -13 24 -9 0 -10 -4 -4 -10z"/>
<path d="M1833 5643 c0 -9 4 -10 14 -2 7 6 13 12 13 14 0 1 -6 2 -13 2 -8 0
-14 -6 -14 -14z"/>
<path d="M1951 5642 c-1 -22 -4 -23 -88 -21 -49 1 -94 6 -101 12 -9 7 -11 5
-5 -9 6 -17 5 -18 -12 -4 -11 9 -16 10 -11 3 5 -10 -3 -13 -29 -13 -26 0 -34
4 -30 13 4 6 -1 3 -10 -8 -12 -14 -16 -16 -15 -5 5 37 1 44 -17 27 -10 -8 -22
-16 -26 -15 -5 0 -11 -3 -14 -5 -3 -3 2 -4 11 -3 8 1 19 5 22 9 12 12 24 8 18
-7 -3 -8 -21 -16 -40 -18 -25 -3 -33 -1 -30 9 3 7 1 15 -5 18 -5 4 -9 3 -8 -2
4 -25 -3 -35 -21 -30 -11 3 -23 1 -26 -4 -3 -6 -12 -5 -22 3 -13 11 -14 11 -8
-1 6 -9 5 -12 -5 -9 -8 3 -13 11 -11 17 1 7 -2 10 -8 6 -6 -3 -8 -10 -5 -15 3
-4 -3 -11 -12 -14 -9 -4 -20 -1 -25 6 -6 10 -8 10 -8 -1 0 -8 -6 -11 -16 -7
-8 3 -12 2 -9 -4 3 -6 -6 -11 -22 -12 -33 -1 -43 -3 -63 -11 -8 -3 -62 -17
-120 -33 -124 -32 -221 -70 -367 -142 -40 -20 -73 -40 -73 -44 0 -4 -7 -8 -15
-8 -8 0 -43 -28 -77 -62 -82 -81 -103 -137 -95 -246 3 -43 9 -88 15 -102 5
-14 17 -50 27 -80 45 -141 233 -519 286 -576 10 -11 19 -26 19 -32 0 -7 5 -12
10 -12 6 0 10 -6 10 -12 1 -29 167 -234 291 -360 l86 -87 2 -83 c2 -76 18
-364 23 -415 1 -12 5 -20 9 -17 4 2 5 17 3 33 -3 17 0 32 7 37 9 5 10 2 6 -9
-3 -9 -2 -19 3 -22 10 -6 8 -24 -5 -45 -8 -13 -6 -13 8 -2 9 8 16 17 15 20 -1
4 2 15 6 25 10 21 0 51 -14 42 -6 -4 -7 1 -3 12 4 12 -1 10 -15 -7 -18 -21
-21 -22 -22 -7 0 10 4 16 9 13 12 -8 21 18 11 34 -6 10 -9 8 -12 -6 -3 -10 -4
0 -4 22 1 23 4 40 9 37 7 -4 11 13 7 32 -1 5 2 6 7 2 4 -5 9 -13 9 -18 1 -5 3
-11 4 -14 2 -4 4 -17 9 -56 0 -5 5 -8 10 -4 6 3 8 15 6 27 -3 11 -1 17 3 14 4
-4 7 -13 7 -19 1 -7 7 -11 15 -9 8 2 12 0 8 -4 -4 -4 -3 -12 2 -19 7 -8 5 -12
-5 -12 -8 0 -12 4 -9 8 2 4 0 10 -5 13 -21 13 -20 -14 1 -34 l22 -20 14 22
c10 18 12 19 6 3 -4 -11 -9 -33 -12 -50 l-6 -30 -7 30 c-7 30 -7 30 -8 3 0
-15 -5 -30 -11 -33 -12 -8 -12 -8 -1 33 5 17 6 32 1 32 -11 0 -19 -63 -9 -76
5 -6 3 -16 -4 -24 -10 -12 -9 -12 5 -1 10 7 17 16 16 19 -2 20 3 25 12 12 6
-10 3 -22 -13 -40 -12 -13 -15 -19 -6 -12 21 15 32 4 17 -17 -10 -12 -7 -12 8
2 11 9 24 14 29 10 4 -5 5 -3 1 4 -3 6 -2 14 3 17 5 3 11 -1 15 -9 3 -8 1 -17
-4 -20 -4 -3 -7 -13 -5 -23 2 -9 4 -23 4 -30 1 -7 6 -10 11 -7 7 4 7 12 2 18
-11 16 -9 38 3 35 6 -2 9 -7 7 -12 -1 -4 2 -14 8 -20 5 -7 6 -17 2 -21 -4 -5
-1 -5 6 0 10 5 11 10 3 18 -20 20 -11 31 9 12 19 -17 19 -20 4 -36 -9 -10 -23
-15 -32 -12 -10 4 -15 4 -12 2 37 -31 53 -41 42 -28 -10 13 -8 19 8 34 19 17
28 10 13 -11 -5 -5 0 -1 10 9 18 20 24 52 7 42 -6 -4 -7 -11 -4 -17 4 -6 2 -8
-4 -4 -6 3 -9 15 -7 26 3 13 0 18 -7 14 -7 -5 -8 -2 -3 7 7 11 5 11 -10 -1
-10 -8 -16 -10 -13 -5 4 6 -7 28 -23 49 -16 22 -29 33 -29 25 -1 -10 -4 -9
-11 4 -6 10 -8 30 -4 45 6 24 8 25 16 9 6 -10 15 -15 20 -11 5 3 9 2 8 -3 -3
-17 14 -52 22 -47 5 3 6 11 3 17 -4 7 -4 9 1 5 4 -4 15 -2 24 5 14 11 15 10 1
-7 -15 -20 -15 -54 1 -70 5 -6 7 4 4 22 -2 18 0 34 5 37 5 3 7 -6 4 -19 -4
-25 7 -29 36 -12 12 7 13 6 3 -4 -9 -9 -9 -19 -2 -32 6 -10 8 -31 6 -46 -4
-24 -4 -23 -6 6 0 18 -5 31 -10 28 -5 -3 -7 -15 -4 -27 4 -12 -3 -32 -15 -49
-20 -26 -20 -29 -4 -42 15 -11 16 -11 4 3 -10 13 -10 18 1 28 8 6 17 8 21 4 4
-4 4 1 0 11 -5 14 -4 17 4 12 18 -11 14 -36 -4 -36 -13 0 -14 -3 -5 -13 6 -8
9 -17 6 -20 -3 -4 -2 -4 3 -1 4 3 7 10 7 15 0 5 5 9 10 9 6 0 10 -4 10 -10 0
-5 6 -15 12 -21 10 -10 12 -8 9 8 -2 11 0 26 5 34 7 11 9 11 10 -3 1 -10 2
-24 3 -30 1 -7 -2 -20 -8 -28 -6 -8 2 -4 17 9 30 27 37 19 10 -11 -14 -15 -14
-19 -3 -16 8 2 14 -2 13 -9 -2 -6 12 -24 30 -39 17 -15 31 -31 29 -36 -1 -5 2
-7 8 -3 6 3 7 12 3 18 -13 20 -12 36 3 48 13 10 14 8 10 -14 -2 -15 0 -29 5
-33 5 -3 6 -10 3 -16 -4 -7 -2 -8 5 -4 8 5 9 12 3 19 -10 12 -8 44 2 55 6 5
10 -23 7 -41 -1 -5 3 -6 9 -2 7 4 9 -3 6 -20 -3 -15 -2 -25 1 -21 4 4 8 12 9
19 1 7 3 17 4 22 1 6 2 19 0 30 l-1 20 -10 -20 c-7 -15 -8 -12 -4 15 4 27 3
30 -4 15 l-10 -20 -1 20 c-1 20 -2 20 -9 1 -7 -19 -8 -18 -14 4 -3 13 -2 29 4
36 7 8 7 14 0 19 -6 3 -14 -7 -17 -22 -7 -25 -8 -25 -15 -8 -6 16 -8 17 -8 3
-1 -9 -6 -20 -12 -24 -8 -4 -9 1 -4 17 5 20 4 21 -5 9 -10 -13 -11 -12 -6 3 4
12 2 16 -5 11 -7 -4 -7 1 1 16 6 12 9 24 6 27 -3 3 -10 -5 -15 -18 -9 -21 -10
-22 -11 -4 l-1 20 -10 -20 c-9 -19 -9 -19 -5 2 3 17 0 21 -15 18 -11 -2 -19 0
-19 6 0 5 5 9 10 9 6 0 10 8 10 17 0 15 -2 14 -16 -3 -15 -19 -15 -19 -5 1 22
44 29 48 29 20 0 -14 5 -32 11 -38 9 -9 11 -5 7 17 -3 16 -2 25 2 21 7 -6 8
-10 11 -36 0 -5 6 -7 11 -4 6 4 7 12 4 18 -4 7 -3 8 2 4 5 -5 10 -13 10 -18 1
-5 2 -14 3 -20 0 -5 6 -7 11 -4 6 4 10 3 9 -2 -1 -4 -1 -15 0 -23 1 -13 3 -13
10 0 6 8 7 19 4 25 -4 5 3 2 15 -9 12 -10 20 -22 17 -25 -2 -4 0 -13 6 -21 7
-12 9 -11 10 5 1 11 1 24 0 28 -1 5 3 6 9 2 6 -3 8 -10 5 -15 -3 -5 -3 -21 1
-35 5 -19 9 -23 15 -14 4 7 3 19 -2 25 -7 9 -5 12 8 10 10 -2 18 -8 18 -14 0
-7 5 -12 10 -12 6 0 10 4 10 9 0 5 3 12 7 16 3 4 5 0 4 -9 -1 -8 -5 -19 -9
-22 -11 -11 -8 -46 3 -39 6 4 8 10 5 15 -3 5 -1 11 4 14 9 6 24 -9 27 -26 1
-5 2 -11 3 -14 0 -4 8 -1 17 6 8 8 14 9 12 3 -2 -6 2 -10 7 -9 6 0 9 4 8 7 -1
3 5 6 12 6 10 0 12 -4 5 -12 -5 -6 -5 -16 0 -25 9 -14 11 -13 14 9 0 5 4 12 9
15 4 3 5 3 2 -1 -3 -3 0 -12 6 -20 7 -7 9 -28 6 -48 -3 -19 -1 -37 4 -41 5 -3
6 -10 3 -16 -13 -20 -23 17 -17 61 4 29 3 42 -4 38 -6 -4 -9 -19 -7 -34 l4
-28 -10 25 c-9 22 -9 21 -5 -9 3 -19 13 -46 22 -60 10 -15 18 -29 18 -33 0 -3
3 -9 8 -12 4 -3 5 -3 2 1 -7 10 16 34 27 27 5 -3 4 -13 -4 -22 -10 -14 -10
-15 2 -5 11 10 19 9 39 -10 14 -12 21 -15 15 -7 -6 8 -10 29 -10 47 1 17 -2
29 -6 27 -4 -2 -9 0 -13 6 -3 6 -17 8 -30 6 -14 -3 -28 0 -31 6 -4 6 -2 8 3 5
7 -5 10 7 8 32 -2 35 0 39 18 35 11 -2 25 -8 31 -14 8 -8 6 -9 -5 -5 -10 4
-16 0 -16 -9 0 -10 8 -14 21 -12 12 2 21 8 21 14 0 6 3 13 6 17 4 3 6 -5 5
-17 0 -14 4 -22 12 -20 6 1 11 -1 11 -5 -1 -5 -1 -17 0 -28 1 -16 3 -17 10 -6
5 8 7 21 4 30 -3 9 3 5 12 -8 18 -23 19 -23 32 -5 14 18 14 18 11 -1 -2 -15 2
-20 19 -19 12 1 22 -1 21 -5 -2 -19 3 -31 12 -26 5 3 7 13 4 23 -5 14 -4 15 5
2 6 -8 15 -16 21 -16 21 -3 22 -4 11 -18 -7 -9 -8 -17 -2 -20 5 -3 12 -1 14 4
3 6 4 5 2 -2 -1 -7 -7 -12 -13 -11 -8 2 -9 -4 -3 -20 19 -47 24 -62 22 -70 -1
-5 3 -6 9 -2 6 4 6 12 -2 25 -9 14 -9 25 -1 43 7 14 8 29 2 38 -5 8 -6 22 -3
33 4 13 3 16 -6 11 -9 -5 -11 -4 -6 4 4 6 2 19 -6 28 -10 13 -10 15 0 9 9 -6
11 -2 7 16 -3 12 -6 43 -7 68 l-3 45 33 -3 c20 -1 32 2 32 10 0 9 4 8 10 -2 5
-8 10 -13 11 -10 3 13 9 68 12 100 1 19 8 36 15 36 6 1 13 2 15 4 1 1 20 4 42
6 22 2 45 6 52 8 17 7 25 -8 27 -54 1 -22 6 -43 10 -47 4 -5 7 -3 6 2 -5 21 0
36 9 30 6 -3 8 -14 6 -25 -2 -12 0 -18 5 -15 5 3 7 14 5 25 -2 11 0 22 6 25 5
4 9 14 8 23 0 14 -2 13 -9 -3 l-9 -20 -1 20 c-1 19 -2 18 -10 -2 -12 -29 -15
-29 -15 1 0 19 5 23 28 21 15 -1 27 1 27 6 0 5 -16 9 -35 9 -20 0 -35 5 -35
11 0 9 18 10 63 4 93 -11 361 -14 452 -4 308 32 597 115 859 245 132 66 185
102 253 170 65 65 82 117 78 229 -8 213 -133 489 -359 793 -38 52 -75 96 -82
99 -8 3 -14 11 -14 19 0 15 -281 301 -373 379 -132 112 -407 295 -443 295 -7
0 -14 3 -16 8 -4 10 -175 88 -247 113 -160 56 -355 104 -449 111 -19 1 -36 7
-39 12 -3 5 -1 6 5 2 12 -7 10 20 -3 31 -4 4 -5 3 -2 -3 4 -7 1 -17 -7 -23
-18 -15 -88 -11 -82 4 2 7 0 18 -5 26 -7 12 -9 12 -10 -1 -1 -8 -1 -19 0 -24
1 -5 -6 -3 -15 5 -12 9 -15 9 -10 2 5 -10 -10 -13 -68 -13 -69 0 -75 2 -79 23
l-4 22 -2 -23z m-473 -351 c2 -6 -5 -27 -17 -46 -28 -48 -12 -61 86 -70 43 -4
87 -11 98 -15 14 -5 24 0 40 24 11 17 36 41 55 54 33 22 34 22 53 3 13 -13 19
-32 19 -59 l-1 -40 72 -12 c40 -6 92 -15 116 -20 41 -8 46 -6 72 21 22 24 79
56 83 47 37 -93 70 -120 173 -140 32 -6 63 -15 69 -20 7 -5 16 -2 24 8 16 19
64 44 83 44 8 0 20 -13 27 -30 16 -39 57 -80 100 -97 36 -16 127 -20 179 -8
24 5 31 3 31 -8 0 -29 64 -84 124 -106 32 -12 68 -28 78 -36 18 -12 24 -11 52
6 43 26 62 24 74 -10 14 -38 85 -107 127 -122 19 -7 35 -16 35 -20 0 -17 41
-19 75 -4 63 26 82 21 88 -22 9 -52 28 -76 97 -123 64 -43 75 -47 87 -27 31
48 89 45 116 -6 13 -24 16 -44 11 -77 -7 -52 -88 -225 -133 -288 -27 -37 -35
-41 -59 -36 -15 4 -30 12 -34 18 -12 18 -8 98 7 141 8 22 15 47 15 55 0 14
-49 50 -117 84 l-31 16 -27 -48 c-27 -46 -95 -120 -95 -102 0 5 -15 10 -32 12
-31 3 -33 6 -36 46 -3 34 4 53 33 101 21 33 34 65 30 71 -3 5 -28 21 -54 35
-27 13 -62 36 -79 50 l-31 26 -45 -69 c-24 -38 -56 -79 -72 -91 -35 -28 -87
-26 -93 4 -2 11 -8 23 -15 27 -8 6 -7 8 2 8 6 0 12 8 12 18 0 10 20 49 45 87
24 38 41 73 37 77 -13 12 -215 87 -223 82 -5 -3 -25 -36 -45 -75 -57 -109
-122 -149 -158 -97 -28 39 -20 75 30 138 25 32 44 66 42 76 -4 22 -114 64
-176 67 l-47 2 -30 -86 c-41 -118 -46 -124 -93 -124 -84 0 -96 61 -32 165 22
36 40 73 40 83 0 24 -39 37 -108 37 -34 0 -66 6 -79 15 -26 18 -35 8 -87 -92
-28 -53 -46 -76 -71 -87 -45 -22 -72 -20 -80 4 -3 11 -10 20 -15 20 -13 0 5
64 34 112 14 24 26 52 26 60 0 19 -58 36 -157 47 l-73 7 -39 -75 c-22 -42 -51
-87 -65 -100 -22 -20 -30 -22 -63 -14 -35 8 -38 11 -41 49 -2 29 5 55 28 98
35 65 33 71 -30 81 -19 3 -54 10 -77 16 -23 5 -47 9 -53 9 -6 0 -29 -38 -51
-85 -53 -112 -104 -152 -163 -129 -19 7 -20 40 -2 114 25 104 90 226 177 330
l48 58 38 -13 c20 -7 39 -18 41 -24z m-108 -2002 c0 -11 -4 -18 -10 -14 -5 3
-7 12 -3 20 7 21 13 19 13 -6z m90 -64 c5 3 18 -9 30 -27 l22 -33 -24 28 c-22
25 -26 26 -37 13 -7 -9 -18 -13 -23 -10 -6 4 -6 10 0 16 6 6 8 18 5 27 -3 13
-2 12 7 -2 6 -9 15 -15 20 -12z m155 -34 c-3 -5 -1 -12 4 -15 5 -4 7 -19 4
-34 -7 -36 -7 -43 2 -67 6 -15 5 -17 -4 -9 -14 13 -16 37 -8 76 3 15 1 30 -4
34 -9 5 -3 24 7 24 3 0 3 -4 -1 -9z m94 -207 c-2 -1 5 -11 15 -23 11 -12 15
-21 9 -21 -5 0 -18 9 -28 20 -10 11 -15 20 -10 20 4 0 2 6 -4 13 -6 8 -8 17
-4 21 4 3 11 -1 17 -11 5 -10 8 -19 5 -19z m51 11 c0 -13 -29 -42 -31 -31 -8
36 -5 43 16 43 8 0 15 -6 15 -12z m161 -2 c13 -16 12 -17 -3 -4 -10 7 -18 15
-18 17 0 8 8 3 21 -13z m169 -189 c15 -39 12 -40 -21 -8 -17 16 -30 25 -29 19
4 -19 0 -26 -10 -20 -16 10 4 30 30 32 14 1 24 -6 30 -23z m233 -59 c-3 -9 -8
-14 -10 -11 -3 3 -2 9 2 15 9 16 15 13 8 -4z"/>
<path d="M2006 5647 c3 -10 9 -15 12 -12 3 3 0 11 -7 18 -10 9 -11 8 -5 -6z"/>
<path d="M1715 5639 c-4 -6 -5 -12 -2 -15 2 -3 7 2 10 11 7 17 1 20 -8 4z"/>
<path d="M1535 5621 c-3 -5 -2 -12 3 -15 5 -3 9 1 9 9 0 17 -3 19 -12 6z"/>
<path d="M1245 5559 c-4 -6 -5 -12 -2 -15 2 -3 7 2 10 11 7 17 1 20 -8 4z"/>
<path d="M7970 4910 c-6 -11 -8 -20 -6 -20 3 0 10 9 16 20 6 11 8 20 6 20 -3
0 -10 -9 -16 -20z"/>
<path d="M7867 4722 c-82 -133 -278 -337 -427 -443 -112 -80 -306 -177 -448
-224 -46 -15 -85 -32 -87 -39 -2 -6 -6 -69 -10 -141 -3 -71 -8 -161 -10 -200
-6 -100 -13 -307 -8 -265 2 19 7 42 10 50 3 8 7 18 8 23 2 4 4 10 5 15 1 4 2
10 1 14 0 3 7 5 17 4 12 -2 16 -11 14 -27 -2 -19 -1 -21 7 -9 10 13 11 13 11
0 0 -13 1 -13 10 0 6 9 5 19 -3 28 -14 18 -18 40 -7 47 5 3 7 -3 5 -14 -2 -11
4 -26 13 -33 13 -11 15 -11 9 5 -4 11 -2 17 8 17 9 0 12 -6 9 -17 -5 -15 -3
-15 10 1 9 11 16 14 16 7 0 -7 4 -10 9 -6 6 3 8 14 6 25 -2 12 0 18 6 15 5 -4
7 -10 4 -15 -3 -4 3 -14 12 -21 14 -12 15 -11 9 11 l-7 25 16 -25 c16 -24 16
-24 12 -2 -3 12 -1 20 4 16 5 -3 9 -12 9 -20 0 -8 5 -12 11 -9 7 5 5 16 -6 33
l-16 27 19 -22 c11 -12 22 -19 26 -16 3 4 -2 16 -11 27 -13 15 -14 17 -2 9 12
-10 18 -10 29 0 12 10 12 9 2 -5 -8 -10 -9 -19 -3 -22 5 -4 13 4 17 16 l6 21
14 -24 c14 -24 14 -24 10 9 -3 19 -2 31 2 27 7 -7 9 -12 11 -42 2 -23 13 -8
15 19 1 18 7 23 26 23 14 0 25 5 25 12 0 6 3 15 7 19 4 3 6 -2 4 -13 -3 -11 0
-26 5 -34 6 -11 9 -8 10 11 1 14 0 29 -1 35 -1 5 2 7 6 3 4 -4 14 -2 23 5 14
10 14 10 3 -5 -8 -10 -9 -19 -3 -22 5 -3 11 0 14 6 2 7 4 0 4 -17 0 -16 -2
-24 -4 -17 -4 10 -9 8 -20 -5 -13 -17 -13 -16 -4 4 7 14 8 24 1 28 -5 3 -10
-2 -10 -12 -1 -22 -30 -64 -30 -42 0 12 -2 12 -10 -1 -8 -13 -10 -13 -10 -1 0
11 -4 9 -15 -5 -15 -19 -15 -19 -9 1 5 18 5 18 -6 2 -6 -9 -15 -15 -20 -12 -5
3 -11 1 -15 -4 -3 -5 -14 -8 -25 -6 -14 3 -17 -1 -13 -13 4 -13 2 -12 -11 3
-14 17 -15 17 -10 2 5 -15 2 -17 -19 -13 -21 4 -25 1 -20 -12 4 -15 3 -15 -6
-2 -9 13 -11 13 -11 0 0 -13 -1 -13 -10 0 -9 13 -10 13 -10 0 0 -12 -2 -13 -9
-1 -7 11 -9 11 -14 0 -4 -11 -6 -11 -6 1 -1 10 -6 7 -17 -8 -8 -12 -20 -19
-26 -16 -7 5 -8 2 -3 -7 7 -11 6 -12 -6 -3 -22 16 -44 11 -45 -11 -3 -38 -4
-40 -13 -26 -6 9 -6 23 0 35 9 20 9 20 -4 3 -11 -14 -16 -15 -20 -5 -3 7 -4 3
-4 -9 1 -12 5 -19 9 -17 8 5 12 -11 9 -30 -1 -5 4 -4 12 2 8 7 17 8 21 4 4 -4
6 -2 4 3 -2 6 2 10 7 10 6 0 9 -4 7 -9 -2 -5 4 -4 12 3 8 7 18 21 21 32 4 11
11 17 16 13 6 -3 5 -12 -3 -22 -10 -14 -9 -14 8 1 18 14 23 15 32 4 8 -9 8
-18 2 -25 -7 -9 -7 -9 3 -1 6 5 12 13 12 17 2 23 18 51 26 46 6 -3 5 -12 -3
-22 -11 -15 -10 -15 8 0 16 14 23 15 33 5 7 -6 11 -7 9 -2 -2 6 2 11 7 13 6 1
10 -7 10 -17 0 -11 3 -22 6 -26 4 -3 6 5 5 17 0 14 4 22 11 21 7 -2 12 3 10
10 -1 6 4 11 10 10 7 -2 12 0 12 5 -3 19 2 33 10 27 6 -3 8 -14 6 -25 -2 -11
0 -22 4 -25 5 -2 8 3 7 13 0 9 4 18 9 20 6 1 10 -2 10 -7 0 -6 7 -16 15 -23
12 -11 12 -11 3 2 -8 11 -6 22 7 42 9 16 20 25 23 21 4 -3 2 -12 -4 -19 -7 -8
-7 -14 1 -19 6 -4 9 -3 8 2 -2 4 2 8 7 8 5 0 9 -4 7 -8 -1 -5 2 -5 8 -2 8 5 7
12 -4 24 -10 11 -12 21 -6 31 9 13 14 8 12 -12 -1 -3 4 -11 11 -16 10 -8 13
-3 14 21 5 88 12 302 13 376 0 85 5 100 14 46 2 -17 5 -32 6 -35 1 -3 2 -9 1
-13 -1 -5 2 -6 7 -3 13 8 8 47 -11 85 -19 37 -23 154 -5 129 7 -9 8 -6 5 10
-3 12 -1 20 4 16 5 -3 9 -13 9 -22 0 -14 2 -15 9 -2 6 8 8 17 5 21 -2 5 4 6
16 4 11 -2 22 0 25 5 9 15 38 4 42 -16 1 -10 3 -38 4 -61 1 -24 6 -43 11 -43
5 0 7 4 4 8 -2 4 -1 14 4 22 5 9 4 20 -3 30 -6 8 -7 12 -3 8 5 -4 16 -2 25 5
14 10 14 10 3 -5 -8 -10 -9 -19 -3 -22 11 -7 25 29 16 43 -3 5 -2 12 3 15 5 3
9 0 9 -7 0 -7 3 -23 7 -37 5 -17 4 -21 -2 -11 -8 11 -11 9 -17 -9 -6 -18 -9
-20 -17 -9 -8 11 -9 10 -4 -4 3 -10 2 -16 -4 -12 -6 4 -7 -1 -3 -11 4 -11 8
-13 11 -6 2 7 8 10 13 6 5 -3 9 -2 8 3 -3 20 2 34 11 28 6 -4 7 -12 4 -18 -4
-7 -3 -8 2 -4 5 5 10 13 10 18 1 5 2 14 3 20 0 5 5 8 10 5 4 -3 6 6 3 19 -3
20 -1 24 15 21 14 -3 19 2 21 20 2 22 -2 24 -41 25 -23 1 -48 1 -54 0 -7 -1
-13 3 -13 9 0 5 -5 10 -11 10 -5 0 -7 -5 -3 -12 5 -7 3 -8 -6 -3 -11 6 -10 10
2 19 21 16 28 42 15 57 -7 7 -2 5 10 -5 l22 -19 -4 32 c-2 17 0 33 5 36 5 3 7
-6 4 -20 -5 -31 4 -33 15 -2 8 19 9 18 9 -11 -1 -20 -4 -28 -9 -21 -5 9 -10 3
-15 -16 -6 -26 -8 -27 -15 -10 -7 17 -7 16 -6 -6 0 -14 7 -26 13 -26 7 0 13 3
12 6 -2 23 4 41 12 36 5 -3 7 -12 4 -19 -3 -8 -1 -17 4 -20 5 -3 8 5 7 18 -3
26 21 70 34 62 4 -3 7 4 8 14 1 11 -2 22 -8 25 -5 3 -6 -2 -3 -12 5 -15 4 -16
-6 -3 -10 13 -11 13 -6 -2 3 -10 1 -20 -3 -23 -5 -2 -11 6 -13 20 -3 13 -2 24
1 23 3 0 8 1 11 2 36 13 40 8 42 -53 0 -34 1 -68 1 -74 -1 -7 3 -11 7 -8 4 2
6 25 5 49 -2 29 2 44 9 43 6 -1 11 7 10 19 0 11 5 21 12 21 9 0 10 -7 4 -23
-5 -12 -6 -25 -2 -30 4 -4 0 -4 -8 1 -8 5 -12 5 -8 0 4 -4 3 -14 -3 -22 -8 -9
-8 -17 0 -26 6 -8 7 -18 3 -23 -4 -5 -3 -5 3 -1 6 5 10 21 11 35 0 18 5 26 15
24 8 -2 11 0 7 4 -4 4 -2 14 4 22 7 7 13 24 15 35 2 17 1 19 -6 7 -5 -8 -8
-17 -5 -21 2 -4 -1 -11 -7 -15 -9 -5 -10 1 -5 20 5 22 3 26 -16 26 -28 0 -44
11 -42 28 1 6 3 29 4 50 2 37 2 37 9 7 4 -16 4 -35 -1 -41 -5 -7 -2 -16 6 -23
10 -8 16 -9 21 -1 4 6 2 9 -3 8 -6 -2 -10 2 -10 7 0 6 4 9 10 7 5 -1 7 2 4 7
-4 5 -2 12 2 15 5 3 7 18 4 32 -3 19 -1 25 7 20 6 -4 8 -12 5 -18 -4 -7 -2 -8
5 -4 9 6 9 11 1 21 -8 9 -6 17 5 29 19 18 29 21 19 5 -5 -8 -1 -8 13 0 11 6
23 8 26 4 6 -6 20 37 16 53 -1 5 -1 26 0 47 1 30 6 40 21 44 11 3 17 10 13 17
-5 8 -3 8 8 0 26 -19 43 -11 45 21 2 59 15 106 26 99 7 -4 8 -3 4 4 -4 7 -9
12 -10 12 -2 0 -19 -26 -39 -58z m10 -40 c-1 -21 -7 -39 -13 -39 -12 0 -12 17
1 55 11 32 14 27 12 -16z m-90 -169 c0 -9 -4 -10 -14 -2 -7 6 -13 12 -13 14 0
1 6 2 13 2 8 0 14 -6 14 -14z m-87 -58 c-7 -8 -10 -24 -7 -35 3 -11 1 -23 -4
-26 -5 -3 -9 9 -9 25 0 38 3 47 13 44 4 -2 7 2 7 9 0 6 3 8 6 5 4 -4 1 -13 -6
-22z m-73 -298 c-2 -7 -10 -12 -17 -12 -8 0 -17 -11 -21 -25 -6 -20 -7 -18 -4
10 2 19 4 35 4 35 15 7 41 1 38 -8z m-347 -626 c0 -3 -4 -12 -9 -20 -6 -9 -11
-10 -15 -2 -4 6 -11 9 -16 6 -5 -3 -12 0 -16 6 -4 7 -3 9 4 5 6 -3 13 -3 16 2
6 10 36 12 36 3z m-79 -19 c-15 -29 -38 -45 -46 -32 -3 6 -12 7 -18 3 -20 -13
-36 -12 -31 2 3 6 16 11 30 9 14 -1 28 5 34 14 8 14 9 14 10 2 0 -12 3 -11 11
3 13 23 22 22 10 -1z m-131 -38 c0 -1 -3 -10 -6 -18 -5 -13 -9 -14 -20 -5 -8
6 -14 8 -14 5 0 -4 -5 -4 -10 -1 -16 10 -4 21 24 21 14 0 26 -1 26 -2z m-92
-39 c3 -11 0 -15 -7 -10 -6 3 -8 12 -4 18 4 7 0 6 -10 -2 -15 -11 -17 -11 -17
2 0 21 34 15 38 -8z"/>
<path d="M7909 4743 c-5 -31 -5 -73 -1 -68 6 6 12 75 6 75 -2 0 -5 -3 -5 -7z"/>
<path d="M7804 4455 c0 -13 3 -22 7 -19 8 4 6 30 -2 38 -3 3 -5 -5 -5 -19z"/>
<path d="M7450 4140 c-5 -10 -6 -21 -2 -25 4 -5 2 -5 -5 -1 -7 4 -10 14 -7 24
5 14 2 13 -11 -3 -9 -11 -21 -20 -27 -20 -6 0 -12 -8 -14 -18 -2 -15 0 -16 13
-5 14 11 15 10 9 -12 l-7 -25 14 23 c7 12 16 20 20 16 4 -4 2 -13 -4 -20 -7
-9 -6 -14 3 -20 7 -4 10 -4 6 1 -4 4 -3 14 3 22 6 7 8 13 4 13 -4 0 -2 7 5 15
8 10 17 12 24 6 9 -7 12 -2 11 18 0 31 -21 37 -35 11z m23 -3 c3 -8 -1 -14 -8
-14 -7 0 -11 6 -8 14 3 7 6 13 8 13 2 0 5 -6 8 -13z m-39 -25 c3 -5 -1 -9 -9
-9 -8 0 -12 4 -9 9 3 4 7 8 9 8 2 0 6 -4 9 -8z"/>
<path d="M7616 4108 c3 -5 10 -6 15 -3 13 9 11 12 -6 12 -8 0 -12 -4 -9 -9z"/>
<path d="M7403 4032 l-22 -3 24 -43 c13 -24 21 -47 17 -52 -4 -5 0 -3 9 4 9 6
20 8 24 4 5 -4 5 -1 1 6 -4 7 -12 10 -17 7 -5 -4 -9 -2 -9 3 0 19 14 21 34 5
12 -10 18 -14 14 -9 -4 5 -3 15 3 23 6 7 8 13 3 13 -5 0 -2 5 6 11 13 9 12 10
-2 5 -10 -3 -18 -1 -18 4 0 5 8 10 18 12 22 5 -56 14 -85 10z m27 -22 c0 13 1
13 10 0 8 -13 10 -13 10 -1 0 11 4 9 14 -4 16 -23 10 -41 -8 -26 -9 7 -16 7
-24 -1 -7 -7 -12 -10 -13 -7 0 2 -2 15 -5 29 -3 19 -2 21 6 10 9 -13 10 -13
10 0z"/>
<path d="M7230 3579 c0 -4 5 -11 10 -14 6 -3 10 0 10 7 0 8 3 9 8 3 11 -15 32
-17 26 -2 -5 14 -54 19 -54 6z"/>
<path d="M7167 3547 c-3 -8 1 -14 8 -14 7 0 11 6 8 14 -3 7 -6 13 -8 13 -2 0
-5 -6 -8 -13z"/>
<path d="M7036 3512 c-3 -5 1 -9 9 -9 8 0 12 4 9 9 -3 4 -7 8 -9 8 -2 0 -6 -4
-9 -8z"/>
<path d="M6913 3498 c-10 -18 -13 -39 -3 -33 8 5 21 45 15 45 -2 0 -7 -6 -12
-12z"/>
<path d="M7001 3493 c-6 -11 -11 -13 -11 -5 0 14 -20 7 -20 -8 0 -14 32 -4 42
13 5 9 7 17 4 17 -3 0 -10 -8 -15 -17z"/>
<path d="M7203 3455 c0 -8 4 -12 9 -9 5 3 6 10 3 15 -9 13 -12 11 -12 -6z"/>
<path d="M7106 3441 c-3 -5 2 -15 12 -22 15 -12 16 -12 5 2 -7 9 -10 19 -6 22
3 4 4 7 0 7 -3 0 -8 -4 -11 -9z"/>
<path d="M7021 3416 c-9 -11 -9 -16 1 -22 7 -4 10 -4 6 1 -4 4 -3 14 3 22 6 7
9 13 6 13 -2 0 -10 -6 -16 -14z"/>
<path d="M1340 3395 c0 -8 4 -15 8 -15 5 0 9 7 9 15 0 8 -4 15 -9 15 -4 0 -8
-7 -8 -15z"/>
<path d="M1350 3365 c0 -5 10 -21 21 -35 13 -17 17 -18 10 -5 -17 33 -31 51
-31 40z"/>
<path d="M7160 3366 c0 -2 7 -7 16 -10 8 -3 12 -2 9 4 -6 10 -25 14 -25 6z"/>
<path d="M6872 3348 c-7 -7 -11 -28 -10 -47 l1 -36 4 35 c3 19 9 41 15 47 13
16 6 17 -10 1z"/>
<path d="M1451 3269 c0 -13 3 -18 6 -11 3 8 17 -5 35 -33 16 -25 31 -45 33
-45 1 0 0 11 -3 25 -2 14 -8 22 -13 19 -5 -3 -13 5 -18 18 -5 13 -16 30 -25
37 -14 12 -16 10 -15 -10z"/>
<path d="M1359 3213 c-13 -16 -12 -17 4 -4 16 13 21 21 13 21 -2 0 -10 -8 -17
-17z"/>
<path d="M6852 3200 c0 -19 2 -27 5 -17 2 9 2 25 0 35 -3 9 -5 1 -5 -18z"/>
<path d="M1559 3195 c0 -6 -2 -19 -4 -29 -3 -18 -2 -18 13 -3 13 13 14 20 4
29 -7 7 -12 8 -13 3z"/>
<path d="M1436 3153 c-6 -14 -5 -15 5 -6 7 7 10 15 7 18 -3 3 -9 -2 -12 -12z"/>
<path d="M1323 3105 c0 -22 2 -30 4 -17 2 12 2 30 0 40 -3 9 -5 -1 -4 -23z"/>
<path d="M2629 3120 c-1 -8 -3 -19 -3 -25 -1 -5 -5 -15 -9 -22 -4 -6 -2 -15 4
-19 7 -4 9 -3 5 4 -3 6 -2 13 3 17 6 3 7 13 4 23 -6 15 -5 16 12 2 15 -12 17
-12 10 -1 -6 11 -4 13 8 8 9 -3 19 -2 21 2 3 5 -5 8 -17 7 -12 -1 -25 3 -29 9
-5 6 -8 4 -9 -5z"/>
<path d="M2434 3108 c-3 -5 -9 -6 -13 -4 -15 10 -9 -33 7 -46 9 -7 14 -8 10
-4 -4 5 1 21 12 36 15 22 16 27 4 27 -8 0 -17 -4 -20 -9z m6 -19 c-7 -11 -14
-18 -17 -15 -3 3 0 12 7 21 18 21 23 19 10 -6z"/>
<path d="M2474 3098 l-19 -23 23 19 c21 18 27 26 19 26 -2 0 -12 -10 -23 -22z"/>
<path d="M6841 3104 c0 -11 3 -14 6 -6 3 7 2 16 -1 19 -3 4 -6 -2 -5 -13z"/>
<path d="M1710 3061 c0 -5 5 -13 10 -16 6 -3 10 -2 10 4 0 5 -4 13 -10 16 -5
3 -10 2 -10 -4z"/>
<path d="M1589 3013 c-13 -16 -12 -17 4 -4 9 7 17 15 17 17 0 8 -8 3 -21 -13z"/>
<path d="M6832 2995 c0 -16 2 -22 5 -12 2 9 2 23 0 30 -3 6 -5 -1 -5 -18z"/>
<path d="M1837 2983 c-3 -10 -4 -31 -3 -48 1 -16 0 -34 -3 -40 -10 -18 -9 -35
0 -29 5 3 7 9 4 14 -3 5 -1 11 4 15 6 3 7 13 4 23 -6 15 -5 15 10 3 9 -7 14
-18 10 -25 -11 -16 -12 -35 -3 -41 4 -2 7 4 6 15 0 11 3 18 9 17 5 -1 8 -9 7
-17 -5 -21 24 20 32 47 4 12 2 24 -4 28 -6 3 -8 10 -5 15 3 5 0 12 -6 16 -7 4
-10 3 -6 -2 3 -5 -1 -18 -9 -28 -13 -18 -14 -18 -20 12 -8 38 -21 50 -27 25z
m47 -50 c16 21 27 3 17 -27 -6 -17 -10 -15 -34 14 -15 17 -27 39 -27 48 1 9 8
1 16 -18 14 -32 16 -34 28 -17z"/>
<path d="M2411 2969 c11 -7 11 -9 1 -9 -10 0 -9 -4 2 -16 9 -8 13 -20 10 -26
-4 -7 -2 -8 4 -4 6 4 8 14 5 23 -5 12 -3 14 8 8 12 -8 12 -6 0 8 -14 18 -2 24
15 7 7 -7 11 -7 11 3 0 8 -13 13 -35 14 -23 0 -30 -2 -21 -8z"/>
<path d="M1924 2913 c-4 -15 -9 -32 -13 -38 -8 -15 -11 -38 -3 -30 4 4 7 11 7
16 0 5 3 9 8 9 4 0 9 0 12 0 3 0 0 -10 -6 -22 -9 -18 -9 -21 1 -11 16 15 25
89 11 97 -6 4 -13 -5 -17 -21z m13 -25 c-3 -7 -5 -2 -5 12 0 14 2 19 5 13 2
-7 2 -19 0 -25z"/>
<path d="M1957 2888 c-2 -24 -7 -54 -10 -67 -4 -13 -3 -20 1 -17 7 7 8 11 11
37 0 5 4 8 9 6 8 -5 7 71 -1 79 -3 3 -7 -14 -10 -38z"/>
<path d="M6822 2895 c0 -16 2 -22 5 -12 2 9 2 23 0 30 -3 6 -5 -1 -5 -18z"/>
<path d="M1687 2899 c7 -7 15 -10 18 -7 3 3 -2 9 -12 12 -14 6 -15 5 -6 -5z"/>
<path d="M2047 2903 c-3 -7 -3 -14 1 -51 1 -7 7 -10 12 -7 6 4 16 2 23 -3 7
-6 16 -12 22 -14 5 -1 10 -10 11 -18 3 -16 11 -52 14 -60 1 -3 2 -9 1 -13 -1
-5 3 -6 8 -3 5 4 8 15 6 25 -2 10 1 24 6 32 7 11 9 11 10 -3 1 -10 2 -24 3
-30 1 -7 -7 -24 -18 -38 -19 -23 -18 -23 10 2 23 22 33 25 42 16 8 -8 8 -15 1
-24 -7 -8 -7 -14 1 -19 6 -4 10 -3 9 2 -1 4 0 11 1 16 5 15 8 27 9 45 1 14 3
14 10 3 5 -8 7 -20 4 -27 -2 -6 0 -15 6 -19 7 -4 8 0 4 11 -4 12 -3 15 6 10 7
-5 10 -20 7 -37 -2 -16 -1 -27 4 -24 13 8 5 78 -14 113 -10 19 -20 31 -23 28
-4 -3 -13 0 -21 6 -13 11 -14 8 -8 -22 4 -24 3 -29 -3 -15 -6 16 -9 17 -13 5
-3 -8 -3 -5 -1 8 6 35 -8 48 -23 21 l-12 -24 -7 27 c-9 36 -35 58 -36 32 0
-15 -2 -16 -7 -4 -4 8 -14 15 -22 15 -9 0 -15 9 -14 23 1 22 -2 28 -9 15z m93
-118 c0 -5 -5 -3 -10 5 -5 8 -10 20 -10 25 0 6 5 3 10 -5 5 -8 10 -19 10 -25z
m77 -12 c-7 -23 -14 -30 -22 -23 -7 5 -14 9 -16 7 -2 -1 -2 0 -1 3 2 3 9 5 15
5 7 0 12 10 11 21 0 11 5 21 11 21 9 0 9 -9 2 -34z m32 -13 c11 -24 11 -24 -3
-6 -9 11 -16 24 -16 30 0 12 5 7 19 -24z"/>
<path d="M1875 2841 c-3 -5 -2 -12 3 -15 5 -3 9 1 9 9 0 17 -3 19 -12 6z"/>
<path d="M1973 2815 c0 -8 4 -12 9 -9 5 3 6 10 3 15 -9 13 -12 11 -12 -6z"/>
<path d="M2265 2789 c-3 -4 1 -22 9 -40 7 -19 12 -42 11 -52 -2 -9 1 -15 5
-12 5 3 6 18 3 33 -3 15 -6 33 -6 40 0 6 -5 12 -11 12 -5 0 -2 6 8 13 17 12
17 14 2 14 -9 0 -19 -4 -21 -8z"/>
<path d="M2070 2756 c0 -2 8 -10 18 -17 15 -13 16 -12 3 4 -13 16 -21 21 -21
13z"/>
<path d="M2169 2713 c-13 -16 -12 -17 4 -4 16 13 21 21 13 21 -2 0 -10 -8 -17
-17z"/>
<path d="M2330 2711 c0 -6 4 -13 10 -16 6 -3 7 1 4 9 -7 18 -14 21 -14 7z"/>
<path d="M2223 2703 c4 -3 1 -13 -6 -22 -11 -14 -10 -14 5 -2 16 12 16 31 1
31 -4 0 -3 -3 0 -7z"/>
<path d="M2295 2671 c-3 -5 -2 -12 3 -15 5 -3 9 1 9 9 0 17 -3 19 -12 6z"/>
<path d="M2259 2653 c-13 -16 -12 -17 4 -4 16 13 21 21 13 21 -2 0 -10 -8 -17
-17z"/>
<path d="M6634 2438 l-19 -23 23 19 c21 18 27 26 19 26 -2 0 -12 -10 -23 -22z"/>
<path d="M6555 2370 c-3 -5 -1 -10 4 -10 6 0 11 5 11 10 0 6 -2 10 -4 10 -3 0
-8 -4 -11 -10z"/>
<path d="M6430 2300 c-12 -7 -10 -9 7 -7 12 0 19 5 17 9 -6 10 -6 10 -24 -2z"/>
<path d="M6379 2280 c-45 -26 -216 -49 -402 -54 -29 0 -36 -4 -31 -16 3 -8 9
-68 11 -132 5 -98 2 -133 -17 -215 -53 -234 -194 -432 -388 -545 -23 -13 -39
-28 -35 -32 4 -4 -1 -4 -11 0 -14 5 -17 3 -14 -7 3 -8 14 -13 26 -13 14 1 19
-3 14 -14 -3 -9 -1 -13 4 -9 6 3 11 -9 12 -27 l2 -34 -72 1 c-50 0 -73 -3 -72
-11 3 -35 4 -37 13 -23 5 8 17 16 25 17 9 1 14 -2 10 -7 -3 -5 -9 -7 -13 -5
-4 3 -8 -2 -8 -10 0 -10 4 -11 11 -4 17 17 29 11 15 -7 -11 -15 -10 -14 9 1
12 11 22 16 22 11 0 -4 7 -2 15 5 14 12 19 7 16 -13 -1 -5 3 -6 9 -2 6 3 8 10
5 14 -12 20 32 37 96 36 62 0 65 1 67 24 2 28 20 53 32 46 5 -3 12 -1 15 5 5
8 12 7 23 -2 15 -11 15 -11 5 2 -9 12 -8 20 4 35 15 20 15 20 9 -2 -4 -12 -2
-24 5 -29 7 -4 9 -3 6 4 -10 15 3 42 19 42 8 0 14 -4 14 -10 0 -5 -3 -9 -7 -7
-5 1 -9 -1 -10 -6 -7 -18 13 -7 24 14 12 23 13 23 14 -11 1 -19 1 -42 0 -50
-2 -13 0 -13 8 -1 7 11 10 10 14 -5 4 -16 5 -17 6 -1 0 9 6 17 12 17 5 0 7 -6
3 -12 -4 -7 1 -5 12 4 16 14 23 15 33 5 7 -6 12 -7 11 -2 -5 24 1 34 20 30 11
-2 18 0 15 5 -3 5 -1 11 5 15 6 4 8 11 5 16 -4 5 1 12 9 15 9 3 14 10 11 14
-3 5 0 12 6 16 7 4 9 3 5 -4 -3 -6 -2 -13 4 -17 9 -5 15 15 11 37 0 5 5 7 12
5 6 -1 11 4 10 10 -2 7 3 12 10 10 6 -1 11 3 10 10 -3 12 15 12 36 -1 10 -7
12 -3 7 15 -6 21 -6 22 4 6 10 -15 8 -23 -9 -41 -19 -20 -20 -25 -7 -35 11 -9
16 -9 22 1 13 19 12 81 0 97 -8 11 -8 13 2 7 7 -4 12 -1 12 8 0 9 -5 16 -11
16 -6 0 -9 6 -6 13 4 10 -6 13 -40 13 -67 -1 -61 10 7 13 54 2 58 1 53 -19 -4
-14 -1 -20 11 -20 11 0 14 4 10 13 -6 9 -4 9 7 1 21 -16 82 -12 86 6 4 13 3
13 -6 0 -7 -10 -11 -11 -11 -2 0 6 -5 12 -11 12 -5 0 -7 -6 -3 -12 5 -10 4
-10 -6 -1 -9 8 -18 9 -25 3 -8 -7 -12 -5 -12 3 0 8 12 13 31 12 17 0 47 3 66
7 19 4 68 8 108 9 56 1 72 5 72 17 0 11 -3 12 -14 3 -16 -14 -41 11 -33 33 3
8 3 17 -1 20 -10 11 -11 37 -1 30 5 -3 7 -9 4 -14 -3 -5 -1 -11 4 -14 13 -9
24 11 14 27 -10 16 -14 41 -5 32 4 -4 7 -10 7 -13 1 -13 27 -54 31 -49 2 2 -3
20 -11 40 -17 42 -17 47 -3 65 13 15 -4 16 -18 2 -7 -7 -11 -6 -11 4 0 9 9 13
24 11 14 -1 22 2 20 9 -3 6 -9 10 -14 9 -11 -2 -11 42 0 53 13 14 7 26 -7 15
-10 -8 -16 -9 -21 -1 -4 6 -3 10 2 9 20 -3 23 2 13 24 -10 20 -10 20 3 5 23
-29 26 -10 6 32 -20 41 -25 65 -9 40 8 -12 10 -10 11 10 l1 25 8 -25 8 -25 1
25 c0 14 -4 32 -9 40 -9 13 -10 13 -10 0 0 -11 -4 -9 -13 5 -6 11 -12 22 -13
25 0 3 -7 19 -14 35 -7 17 -12 36 -11 44 1 7 -3 10 -9 6 -6 -4 -9 -1 -8 7 2 7
-3 12 -11 10 -12 -3 -12 -1 -1 13 10 12 10 19 2 27 -7 7 -12 17 -12 23 0 5 5
3 10 -5 11 -17 13 -1 4 24 -5 12 -11 10 -31 -12 -14 -15 -21 -20 -14 -11 7 10
7 19 0 26 -7 7 -5 14 6 23 8 7 15 17 15 23 0 6 -10 1 -23 -11 -17 -17 -24 -18
-24 -8 0 8 5 14 11 13 6 -1 10 4 8 11 -1 8 2 11 8 7 5 -3 10 0 10 7 0 9 3 9
10 -2 8 -13 10 -13 10 1 0 9 8 19 18 21 14 4 18 -1 20 -26 2 -22 0 -27 -7 -16
-5 8 -7 18 -5 22 3 4 1 8 -4 8 -5 0 -9 -14 -9 -30 0 -21 3 -27 9 -18 6 8 7 4
3 -12 -5 -20 -4 -22 5 -10 8 12 9 8 5 -15 -4 -24 -3 -26 4 -10 l10 20 2 -20
c2 -21 2 -33 -5 -78 -2 -15 0 -30 5 -33 5 -3 10 14 11 38 l1 43 7 -40 c8 -40
8 -40 5 8 -1 26 2 50 6 53 8 4 12 -45 12 -128 0 -10 3 -15 8 -13 4 3 6 -4 4
-15 -2 -11 -1 -19 3 -16 4 2 9 -23 10 -57 2 -34 4 -72 5 -84 0 -12 5 -19 10
-16 5 3 4 -4 -2 -15 -14 -26 -15 -54 -2 -33 7 11 10 9 16 -8 4 -13 4 -25 1
-28 -3 -4 -6 2 -6 12 0 34 -11 8 -15 -36 -3 -32 -2 -39 5 -24 8 18 9 18 7 -5
-1 -14 -6 -31 -11 -39 -7 -10 -5 -12 3 -6 10 6 11 3 2 -13 -7 -13 -8 -30 -2
-44 4 -13 6 -28 4 -34 -2 -6 3 -11 12 -11 17 0 20 13 5 22 -5 3 -10 14 -10 23
0 12 6 8 19 -12 11 -17 18 -33 16 -36 -2 -4 2 -7 10 -7 11 0 11 4 -1 23 -10
15 -12 24 -5 29 11 6 12 5 15 -15 0 -5 8 -15 16 -22 12 -11 12 -11 1 5 -7 9
-10 17 -6 17 4 0 3 6 -2 13 -6 6 -9 31 -8 55 1 29 -1 38 -7 28 -5 -8 -7 -26
-4 -40 2 -14 -1 -30 -8 -35 -10 -8 -12 -2 -11 27 0 21 4 43 8 49 4 6 4 19 0
30 -6 16 -5 17 12 3 17 -13 18 -13 10 0 -5 8 -10 24 -10 35 -1 11 -4 27 -8 35
-12 27 -16 70 -7 75 10 6 7 61 -3 71 -18 18 -5 25 15 8 12 -10 18 -14 15 -7
-4 6 -3 14 2 17 5 4 8 14 6 24 -1 9 2 24 8 32 9 13 9 13 -3 2 -8 -7 -15 -22
-15 -33 0 -10 -4 -18 -10 -16 -5 1 -9 6 -7 11 2 5 -3 4 -12 -3 -12 -10 -16 -8
-22 11 -4 13 -6 24 -5 26 2 5 16 -3 14 -9 -1 -3 5 -6 13 -6 10 0 11 4 4 11 -7
7 -3 17 11 32 15 16 17 24 8 29 -7 5 -10 4 -6 -2 4 -6 -2 -18 -12 -27 -15 -13
-20 -14 -24 -4 -4 11 -6 11 -6 0 -1 -7 -5 -11 -11 -7 -5 3 -1 20 11 41 11 20
15 33 10 30 -5 -3 -11 1 -15 9 -3 8 -10 15 -16 15 -7 0 -5 -6 3 -15 9 -8 13
-24 10 -35 -7 -27 -22 -16 -17 13 4 21 4 21 -6 2 -7 -15 -9 2 -7 61 2 67 -1
85 -16 102 -12 13 -15 22 -8 27 6 3 11 12 11 18 -1 14 -23 -22 -26 -42 -2 -7
-8 -19 -14 -25 -15 -14 -2 42 14 63 8 11 8 13 -1 8 -6 -4 -14 -3 -18 3 -8 12
-15 12 -36 0z m87 -95 c0 -13 -3 -22 -7 -19 -4 2 -11 -1 -15 -8 -5 -8 -10 -4
-15 11 -10 26 10 66 25 51 6 -6 11 -21 12 -35z m-106 -39 c0 -2 -8 -10 -17
-17 -16 -13 -17 -12 -4 4 13 16 21 21 21 13z m40 -101 c14 -19 14 -19 -2 -6
-10 7 -18 18 -18 24 0 6 1 8 3 6 1 -2 9 -13 17 -24z m16 -51 c1 -9 0 -13 -4
-10 -3 4 -7 14 -8 22 -1 9 0 13 4 10 3 -4 7 -14 8 -22z m-15 -21 c13 -16 12
-17 -3 -4 -17 13 -22 21 -14 21 2 0 10 -8 17 -17z m124 -53 c12 -20 16 -68 5
-75 -9 -5 -5 -47 7 -75 11 -28 12 -44 2 -56 -5 -6 -7 -18 -3 -27 3 -8 1 -18
-4 -21 -6 -3 -9 -21 -6 -39 2 -17 1 -26 -2 -18 -5 11 -8 11 -16 0 -7 -10 -8
-8 -3 6 12 35 15 94 5 100 -14 9 -12 25 3 23 7 -2 11 6 10 22 -3 28 -11 75
-13 75 -4 0 -10 45 -13 95 -3 46 -2 51 7 30 6 -14 15 -32 21 -40z m-86 37 c8
-10 7 -14 -2 -14 -8 0 -14 6 -14 14 0 7 1 13 2 13 2 0 8 -6 14 -13z m-14 -35
c-3 -3 0 -11 6 -18 7 -9 6 -14 -3 -20 -7 -4 -10 -3 -5 1 4 5 0 16 -8 25 -13
15 -13 17 0 17 8 0 13 -3 10 -5z m6 -129 c13 -16 12 -17 -3 -4 -10 7 -18 15
-18 17 0 8 8 3 21 -13z m6 -38 c0 -8 -4 -12 -9 -9 -5 3 -6 10 -3 15 9 13 12
11 12 -6z m-20 -70 c0 -8 -4 -12 -9 -9 -5 3 -6 10 -3 15 9 13 12 11 12 -6z
m-297 -196 c0 -4 -11 -6 -24 -5 -13 0 -22 4 -20 8 6 9 44 6 44 -3z m-121 -107
c2 -46 0 -49 -22 -49 -25 0 -29 10 -14 35 5 7 6 22 2 35 -5 20 -5 20 5 4 7
-10 10 -27 7 -38 -3 -11 -1 -16 5 -13 5 3 8 24 5 45 -2 21 -1 37 3 34 3 -2 7
-26 9 -53z m-52 31 c-4 -3 -2 -12 4 -19 6 -7 7 -19 3 -26 -5 -7 -9 -17 -9 -23
0 -5 -7 -10 -15 -10 -9 0 -15 10 -15 27 -1 15 4 26 9 25 6 -1 11 4 12 11 3 20
4 22 11 22 3 0 3 -3 0 -7z m188 -40 c-2 -10 -4 -19 -4 -21 -1 -2 -6 0 -11 3
-8 5 -7 11 1 21 15 18 18 18 14 -3z m-242 -27 c7 4 8 3 4 -1 -17 -19 -35 -13
-29 9 5 18 7 18 10 3 2 -10 8 -14 15 -11z m45 -36 c-2 -5 2 -9 7 -7 6 1 9 5 8
9 -2 5 6 5 36 -1 2 -1 -2 -8 -9 -16 -7 -8 -16 -12 -21 -10 -4 3 -12 -3 -18
-12 -8 -14 -10 -15 -11 -3 0 13 -2 13 -9 1 -10 -16 -49 -23 -56 -10 -3 4 6 6
21 4 18 -2 24 2 20 11 -3 8 0 13 6 11 7 -1 13 4 14 11 2 19 4 22 9 22 3 0 4
-4 3 -10z m-180 -22 c-9 -13 -19 -23 -24 -23 -5 0 -15 -4 -21 -8 -8 -5 -13 -4
-13 2 0 6 5 11 11 11 5 0 7 5 3 12 -4 7 -3 8 4 4 7 -4 12 -1 12 6 0 11 2 10 9
0 7 -11 9 -11 14 2 4 9 9 16 13 16 3 0 0 -10 -8 -22z m-72 -73 c-1 -8 -5 -17
-8 -21 -5 -4 -4 16 1 34 3 9 9 -1 7 -13z m-29 -8 c0 -14 -40 -17 -53 -4 -4 3
3 5 14 2 12 -2 24 0 27 6 8 13 12 11 12 -4z m-67 -3 c0 -8 -19 -13 -24 -6 -3
5 1 9 9 9 8 0 15 -2 15 -3z m-86 -46 c-4 -6 -10 -5 -15 3 -7 12 -9 12 -9 0 0
-8 -3 -12 -6 -8 -10 10 6 26 21 21 8 -4 12 -11 9 -16z"/>
<path d="M6435 2199 c-4 -6 -5 -12 -2 -15 2 -3 7 2 10 11 7 17 1 20 -8 4z"/>
<path d="M6506 1911 c-4 -5 -2 -12 2 -15 5 -3 8 -17 6 -32 -1 -14 0 -23 4 -20
9 9 10 66 1 72 -4 2 -10 0 -13 -5z"/>
<path d="M6525 1729 c-4 -6 -5 -12 -2 -15 2 -3 7 2 10 11 7 17 1 20 -8 4z"/>
<path d="M5931 1372 c-17 -31 -13 -40 5 -14 9 13 14 26 11 29 -3 2 -10 -4 -16
-15z"/>
<path d="M6466 2251 c-3 -4 4 -17 17 -27 22 -19 22 -19 4 2 -9 11 -14 24 -10
27 3 4 4 7 0 7 -3 0 -8 -4 -11 -9z"/>
<path d="M6357 2215 c-9 -13 -13 -26 -8 -29 4 -3 13 6 20 21 15 34 10 37 -12
8z"/>
<path d="M6510 2216 c0 -2 8 -10 18 -17 15 -13 16 -12 3 4 -13 16 -21 21 -21
13z"/>
<path d="M3068 2183 c7 -3 16 -2 19 1 4 3 -2 6 -13 5 -11 0 -14 -3 -6 -6z"/>
<path d="M3308 2173 c6 -2 18 -2 25 0 6 3 1 5 -13 5 -14 0 -19 -2 -12 -5z"/>
<path d="M4271 2168 c0 -9 -4 -25 -7 -35 -5 -17 -5 -17 6 0 6 10 9 25 7 35 -4
15 -5 15 -6 0z"/>
<path d="M6395 2129 c1 -20 15 -39 15 -21 0 5 2 17 5 25 3 7 0 14 -8 14 -7 0
-13 -8 -12 -18z"/>
<path d="M6483 2133 c1 -12 3 -20 6 -18 2 3 14 -3 25 -12 12 -10 18 -14 13 -9
-4 5 0 17 8 26 13 14 13 17 0 17 -8 0 -12 -4 -9 -9 3 -4 -2 -8 -11 -8 -10 0
-13 5 -9 12 4 6 3 8 -4 4 -5 -3 -12 0 -15 6 -3 7 -4 3 -4 -9z"/>
<path d="M6543 2095 c0 -8 4 -12 9 -9 5 3 6 10 3 15 -9 13 -12 11 -12 -6z"/>
<path d="M6581 2084 c0 -11 3 -14 6 -6 3 7 2 16 -1 19 -3 4 -6 -2 -5 -13z"/>
<path d="M6531 2056 c-9 -11 -9 -16 1 -22 7 -4 10 -4 6 1 -4 4 -3 14 3 22 6 7
9 13 6 13 -2 0 -10 -6 -16 -14z"/>
<path d="M4255 2041 c-3 -5 -1 -12 5 -16 5 -3 10 1 10 9 0 18 -6 21 -15 7z"/>
<path d="M6430 2034 c0 -7 5 -16 10 -19 6 -4 8 -10 5 -15 -3 -5 -1 -11 4 -14
5 -4 12 -2 15 3 4 5 2 12 -3 16 -5 3 -8 14 -6 24 2 10 -3 18 -11 18 -8 0 -14
-6 -14 -13z"/>
<path d="M4256 1993 c-6 -14 -5 -15 5 -6 7 7 10 15 7 18 -3 3 -9 -2 -12 -12z"/>
<path d="M4271 1972 c0 -8 -6 -10 -13 -6 -9 6 -9 3 0 -9 8 -9 10 -22 6 -29 -5
-10 -4 -10 5 -2 7 7 11 22 8 35 -2 13 -5 18 -6 11z"/>
<path d="M6583 1915 c0 -8 4 -12 9 -9 5 3 6 10 3 15 -9 13 -12 11 -12 -6z"/>
<path d="M4270 1900 c13 -9 8 -14 -12 -11 -8 1 -5 -20 5 -37 5 -7 13 -9 19 -6
6 4 8 2 4 -4 -3 -6 -2 -13 4 -17 5 -3 10 3 10 14 0 11 -4 23 -10 26 -5 3 -10
1 -10 -5 0 -6 -5 -8 -12 -4 -8 5 -6 11 6 20 19 13 14 34 -7 34 -7 0 -6 -4 3
-10z"/>
<path d="M6465 1889 c10 -35 23 -45 18 -15 -3 15 -10 29 -15 32 -6 4 -7 -2 -3
-17z"/>
<path d="M6562 1877 c-1 -12 -4 -36 -8 -53 -4 -21 -1 -40 9 -55 8 -13 13 -32
12 -42 -2 -9 1 -15 5 -12 5 3 6 15 4 28 -3 12 -6 27 -6 34 -1 7 -5 10 -9 7 -8
-5 -6 42 4 83 3 13 2 25 -2 27 -4 3 -8 -5 -9 -17z"/>
<path d="M4254 1823 c2 -10 -2 -25 -8 -33 -9 -13 -9 -13 6 -2 16 12 18 35 6
48 -4 3 -5 -2 -4 -13z"/>
<path d="M6479 1833 c-2 -12 -6 -28 -8 -33 -9 -19 -7 -41 3 -50 10 -8 13 1 12
40 -1 45 -4 63 -7 43z"/>
<path d="M4290 1791 c14 -28 12 -39 -4 -18 -12 16 -14 16 -20 2 -3 -10 -11
-13 -18 -9 -9 5 -9 3 1 -9 14 -18 26 -23 16 -8 -3 5 -1 12 4 15 20 13 20 -13
-1 -40 -20 -26 -20 -27 -2 -11 11 9 24 14 27 10 10 -10 8 -25 -2 -19 -5 3 -15
-2 -22 -12 -13 -15 -12 -16 4 -3 25 20 21 3 -10 -38 -19 -26 -21 -31 -6 -18
23 20 29 15 37 -26 3 -17 -2 -35 -15 -51 -10 -13 -19 -28 -19 -32 0 -5 12 8
27 29 29 41 46 43 19 3 -9 -14 -16 -27 -16 -29 0 -2 25 -4 55 -5 30 0 64 -4
75 -7 27 -9 26 -5 -19 65 -22 33 -49 85 -62 115 -12 30 -26 55 -31 55 -4 0 -5
-8 -1 -17 5 -15 4 -16 -8 -5 -12 11 -12 15 2 25 17 14 11 50 -9 55 -10 2 -10
-2 -2 -17z m59 -156 c9 -22 15 -46 13 -53 -2 -8 1 -11 7 -8 15 10 23 -12 11
-31 -9 -15 -10 -14 -4 6 4 16 3 21 -5 17 -6 -4 -11 -15 -12 -24 0 -14 -2 -13
-8 3 -5 11 -6 27 -4 35 4 12 3 12 -5 1 -5 -7 -7 -23 -5 -35 4 -17 3 -18 -6 -6
-7 10 -11 11 -11 3 0 -7 -5 -13 -10 -13 -6 0 -3 11 6 25 15 22 12 51 -5 41 -4
-3 -8 7 -9 22 -1 14 -7 29 -13 32 -6 5 -4 18 8 38 18 31 18 31 27 9 4 -12 16
-40 25 -62z"/>
<path d="M4310 1681 c0 -12 -4 -20 -9 -17 -5 4 -1 -10 9 -31 20 -42 57 -58 38
-17 -8 16 -14 21 -19 13 -4 -7 -7 5 -7 25 0 21 -3 40 -6 43 -3 4 -6 -4 -6 -16z"/>
<path d="M6599 1793 c-13 -16 -12 -17 4 -4 9 7 17 15 17 17 0 8 -8 3 -21 -13z"/>
<path d="M4210 1736 c0 -2 8 -10 18 -17 15 -13 16 -12 3 4 -13 16 -21 21 -21
13z"/>
<path d="M6472 1708 c-11 -15 -7 -52 9 -77 10 -15 10 -14 5 1 -3 10 -1 20 5
24 6 4 6 11 -2 20 -6 7 -9 21 -5 29 7 18 2 19 -12 3z"/>
<path d="M6589 1708 c-5 -18 -6 -38 -1 -34 7 8 12 36 6 36 -2 0 -4 -1 -5 -2z"/>
<path d="M4233 1693 c4 -3 1 -13 -6 -22 -11 -14 -10 -14 5 -2 16 12 16 31 1
31 -4 0 -3 -3 0 -7z"/>
<path d="M6586 1631 c-3 -5 2 -15 12 -22 15 -12 16 -12 5 2 -7 9 -10 19 -6 22
3 4 4 7 0 7 -3 0 -8 -4 -11 -9z"/>
<path d="M4269 1628 c-4 -12 -5 -57 0 -53 6 6 10 55 4 55 -1 0 -3 -1 -4 -2z"/>
<path d="M6443 1598 c-8 -12 -9 -21 -4 -44 0 -4 8 -1 16 6 12 10 16 8 23 -11
8 -21 9 -21 14 -3 3 11 1 28 -3 39 -8 20 -8 20 -9 0 -1 -19 -2 -18 -10 3 -11
25 -14 27 -27 10z"/>
<path d="M4160 1536 c0 -2 7 -7 16 -10 8 -3 12 -2 9 4 -6 10 -25 14 -25 6z"/>
<path d="M6077 1382 c-15 -16 -27 -35 -27 -43 1 -8 7 -3 16 11 l15 25 -5 -25
c-3 -14 -3 -19 0 -12 5 10 9 10 22 0 15 -11 15 -11 6 2 -13 17 -15 52 -3 44 4
-2 10 0 13 5 15 23 -13 18 -37 -7z"/>
<path d="M4740 1305 c25 -13 50 -24 55 -24 6 0 -10 11 -35 24 -25 13 -49 24
-55 24 -5 0 10 -11 35 -24z"/>
<path d="M5410 1254 c-36 -12 -87 -25 -113 -29 -35 -5 -47 -11 -43 -21 7 -17
-21 -31 -56 -29 -15 1 -25 -2 -23 -6 3 -4 13 -6 23 -4 9 1 23 -3 31 -9 11 -8
13 -8 8 0 -10 18 21 27 91 28 61 1 84 13 78 40 -2 6 -1 8 1 3 3 -4 12 2 22 14
l17 21 1 -23 c2 -19 0 -20 -7 -9 -5 8 -10 10 -10 4 0 -6 7 -17 16 -24 8 -8 14
-9 13 -4 -1 5 -1 20 0 34 1 19 4 22 10 11 5 -8 8 -23 5 -34 -3 -18 -2 -18 14
-4 9 8 25 13 34 12 14 -3 15 0 5 16 -6 10 -13 16 -16 14 -2 -3 -11 1 -20 8
-14 12 -26 10 -81 -9z m84 -24 c-6 -6 -10 -3 -10 10 0 13 4 16 10 10 7 -7 7
-13 0 -20z"/>
<path d="M4950 1248 c0 -5 5 -8 11 -8 5 0 7 -6 3 -12 -6 -10 -5 -10 7 -1 9 7
24 11 35 9 10 -1 30 0 44 4 18 5 8 8 -38 11 -34 2 -62 1 -62 -3z"/>
<path d="M5075 1201 c-3 -5 0 -13 6 -17 7 -4 9 -3 5 4 -3 5 0 13 6 15 9 4 10
6 1 6 -6 1 -14 -3 -18 -8z"/>
</g>
</svg>
